<?xml version="1.0" standalone="no"?>
<svg viewBox="0 0 200 200" xmlns="http://www.w3.org/2000/svg">
  <path fill="#A32531" d="M43.3,-68.5C57,-67.2,69.3,-57.2,77.1,-44.3C84.9,-31.4,88,-15.7,83.5,-2.6C78.9,10.4,66.6,20.9,56.8,30.3C47,39.7,39.8,48,30.7,50.8C21.7,53.6,10.8,50.9,-2.5,55.2C-15.7,59.4,-31.5,70.6,-43.6,69.6C-55.7,68.5,-64.2,55.2,-70.6,41.6C-76.9,28,-81.1,14,-83,-1.1C-84.9,-16.2,-84.5,-32.4,-76.3,-42.8C-68.1,-53.2,-52.1,-58,-38.1,-59C-24.1,-60.1,-12.1,-57.5,1.4,-60C14.9,-62.4,29.7,-69.8,43.3,-68.5Z" transform="translate(100 100)" />
</svg>
